# xmcd
#
# Track frame offsets:
#	150
#	16785
#	30267
#	44787
#	62298
#	76641
#	93839
#	110729
#	126566
#	143773
#	170044
#
# Disc length: 2569 seconds
#
# Revision: 3
# Processed by: cddbd v1.5.1PL2 Copyright (c) Steve Scherf et al.
# Submitted via: audiograbber 1.83.01
#
DISCID=870a070b
DTITLE=Elvis Martinez - Descontrolado
DYEAR=2005
DGENRE=Bachata
TTITLE0=Para que me Besaste
TTITLE1=Amor de Dos
TTITLE2=Descontrolado
TTITLE3=Llorarás
TTITLE4=Juancito Nadie
TTITLE5=Miel Venenosa
TTITLE6=Enamorate de Mi
TTITLE7=Vamos a Hacernos los Locos
TTITLE8=Ninfomana
TTITLE9=Ella me Ama
TTITLE10=INTRU
EXTD=
EXTT0=
EXTT1=
EXTT2=
EXTT3=
EXTT4=
EXTT5=
EXTT6=
EXTT7=
EXTT8=
EXTT9=
EXTT10=
PLAYORDER=
